<?xml version="1.0" encoding="utf-8" standalone="no"?>
<!DOCTYPE svg PUBLIC "-//W3C//DTD SVG 1.1//EN"
  "http://www.w3.org/Graphics/SVG/1.1/DTD/svg11.dtd">
<!-- Created with matplotlib (http://matplotlib.org/) -->
<svg height="345.6pt" version="1.1" viewBox="0 0 460.8 345.6" width="460.8pt" xmlns="http://www.w3.org/2000/svg" xmlns:xlink="http://www.w3.org/1999/xlink">
 <defs>
  <style type="text/css">
*{stroke-linecap:butt;stroke-linejoin:round;}
  </style>
 </defs>
 <g id="figure_1">
  <g id="patch_1">
   <path d="M 0 345.6 
L 460.8 345.6 
L 460.8 0 
L 0 0 
z
" style="fill:#ffffff;"/>
  </g>
  <g id="axes_1">
   <g id="patch_2">
    <path d="M 57.6 307.584 
L 414.72 307.584 
L 414.72 41.472 
L 57.6 41.472 
z
" style="fill:#ffffff;"/>
   </g>
   <g id="PathCollection_1">
    <defs>
     <path d="M 0 0.25 
C 0.066301 0.25 0.129895 0.223658 0.176777 0.176777 
C 0.223658 0.129895 0.25 0.066301 0.25 0 
C 0.25 -0.066301 0.223658 -0.129895 0.176777 -0.176777 
C 0.129895 -0.223658 0.066301 -0.25 0 -0.25 
C -0.066301 -0.25 -0.129895 -0.223658 -0.176777 -0.176777 
C -0.223658 -0.129895 -0.25 -0.066301 -0.25 0 
C -0.25 0.066301 -0.223658 0.129895 -0.176777 0.176777 
C -0.129895 0.223658 -0.066301 0.25 0 0.25 
z
" id="m8424e4787c" style="stroke:#0000ff;"/>
    </defs>
    <g clip-path="url(#pb86024f909)">
     <use style="fill:#0000ff;stroke:#0000ff;" x="259.725795" xlink:href="#m8424e4787c" y="245.10483"/>
     <use style="fill:#0000ff;stroke:#0000ff;" x="230.170926" xlink:href="#m8424e4787c" y="246.843418"/>
     <use style="fill:#0000ff;stroke:#0000ff;" x="217.834132" xlink:href="#m8424e4787c" y="246.996998"/>
     <use style="fill:#0000ff;stroke:#0000ff;" x="200.822964" xlink:href="#m8424e4787c" y="248.432791"/>
     <use style="fill:#0000ff;stroke:#0000ff;" x="172.791683" xlink:href="#m8424e4787c" y="250.006431"/>
     <use style="fill:#0000ff;stroke:#0000ff;" x="221.032772" xlink:href="#m8424e4787c" y="256.523694"/>
     <use style="fill:#0000ff;stroke:#0000ff;" x="229.717165" xlink:href="#m8424e4787c" y="260.00708"/>
     <use style="fill:#0000ff;stroke:#0000ff;" x="201.761139" xlink:href="#m8424e4787c" y="243.357776"/>
     <use style="fill:#0000ff;stroke:#0000ff;" x="232.146916" xlink:href="#m8424e4787c" y="280.622482"/>
     <use style="fill:#0000ff;stroke:#0000ff;" x="213.9264" xlink:href="#m8424e4787c" y="245.436807"/>
     <use style="fill:#0000ff;stroke:#0000ff;" x="203.066106" xlink:href="#m8424e4787c" y="246.159206"/>
     <use style="fill:#0000ff;stroke:#0000ff;" x="227.386494" xlink:href="#m8424e4787c" y="226.742462"/>
     <use style="fill:#0000ff;stroke:#0000ff;" x="224.711166" xlink:href="#m8424e4787c" y="203.040576"/>
     <use style="fill:#0000ff;stroke:#0000ff;" x="224.238718" xlink:href="#m8424e4787c" y="183.21091"/>
     <use style="fill:#0000ff;stroke:#0000ff;" x="221.823494" xlink:href="#m8424e4787c" y="177.388843"/>
     <use style="fill:#0000ff;stroke:#0000ff;" x="240.647282" xlink:href="#m8424e4787c" y="180.742177"/>
     <use style="fill:#0000ff;stroke:#0000ff;" x="275.373696" xlink:href="#m8424e4787c" y="186.115052"/>
     <use style="fill:#0000ff;stroke:#0000ff;" x="255.369513" xlink:href="#m8424e4787c" y="189.034774"/>
     <use style="fill:#0000ff;stroke:#0000ff;" x="264.415324" xlink:href="#m8424e4787c" y="194.416063"/>
     <use style="fill:#0000ff;stroke:#0000ff;" x="268.989144" xlink:href="#m8424e4787c" y="195.911936"/>
     <use style="fill:#0000ff;stroke:#0000ff;" x="301.413711" xlink:href="#m8424e4787c" y="177.169989"/>
     <use style="fill:#0000ff;stroke:#0000ff;" x="270.815673" xlink:href="#m8424e4787c" y="196.886623"/>
     <use style="fill:#0000ff;stroke:#0000ff;" x="270.112956" xlink:href="#m8424e4787c" y="178.984286"/>
     <use style="fill:#0000ff;stroke:#0000ff;" x="289.029688" xlink:href="#m8424e4787c" y="175.306092"/>
     <use style="fill:#0000ff;stroke:#0000ff;" x="287.933899" xlink:href="#m8424e4787c" y="174.025955"/>
     <use style="fill:#0000ff;stroke:#0000ff;" x="327.210615" xlink:href="#m8424e4787c" y="172.451516"/>
     <use style="fill:#0000ff;stroke:#0000ff;" x="359.249407" xlink:href="#m8424e4787c" y="160.844536"/>
     <use style="fill:#0000ff;stroke:#0000ff;" x="378.719265" xlink:href="#m8424e4787c" y="162.632268"/>
     <use style="fill:#0000ff;stroke:#0000ff;" x="367.807311" xlink:href="#m8424e4787c" y="154.07019"/>
     <use style="fill:#0000ff;stroke:#0000ff;" x="359.143234" xlink:href="#m8424e4787c" y="146.263929"/>
     <use style="fill:#0000ff;stroke:#0000ff;" x="398.486659" xlink:href="#m8424e4787c" y="179.124608"/>
     <use style="fill:#0000ff;stroke:#0000ff;" x="319.961575" xlink:href="#m8424e4787c" y="113.399854"/>
     <use style="fill:#0000ff;stroke:#0000ff;" x="322.329977" xlink:href="#m8424e4787c" y="109.040031"/>
     <use style="fill:#0000ff;stroke:#0000ff;" x="306.042885" xlink:href="#m8424e4787c" y="98.687207"/>
     <use style="fill:#0000ff;stroke:#0000ff;" x="317.54736" xlink:href="#m8424e4787c" y="99.947668"/>
     <use style="fill:#0000ff;stroke:#0000ff;" x="299.525426" xlink:href="#m8424e4787c" y="96.353085"/>
     <use style="fill:#0000ff;stroke:#0000ff;" x="279.857629" xlink:href="#m8424e4787c" y="92.387397"/>
     <use style="fill:#0000ff;stroke:#0000ff;" x="294.948509" xlink:href="#m8424e4787c" y="82.808353"/>
     <use style="fill:#0000ff;stroke:#0000ff;" x="307.088568" xlink:href="#m8424e4787c" y="77.23042"/>
     <use style="fill:#0000ff;stroke:#0000ff;" x="279.12795" xlink:href="#m8424e4787c" y="80.056541"/>
     <use style="fill:#0000ff;stroke:#0000ff;" x="280.837256" xlink:href="#m8424e4787c" y="77.146157"/>
     <use style="fill:#0000ff;stroke:#0000ff;" x="292.335805" xlink:href="#m8424e4787c" y="71.129865"/>
     <use style="fill:#0000ff;stroke:#0000ff;" x="302.787834" xlink:href="#m8424e4787c" y="65.448603"/>
     <use style="fill:#0000ff;stroke:#0000ff;" x="268.112926" xlink:href="#m8424e4787c" y="88.41966"/>
     <use style="fill:#0000ff;stroke:#0000ff;" x="282.153782" xlink:href="#m8424e4787c" y="64.180808"/>
     <use style="fill:#0000ff;stroke:#0000ff;" x="299.489312" xlink:href="#m8424e4787c" y="60.110052"/>
     <use style="fill:#0000ff;stroke:#0000ff;" x="287.764808" xlink:href="#m8424e4787c" y="59.934811"/>
     <use style="fill:#0000ff;stroke:#0000ff;" x="298.668105" xlink:href="#m8424e4787c" y="53.568586"/>
     <use style="fill:#0000ff;stroke:#0000ff;" x="279.777746" xlink:href="#m8424e4787c" y="58.453274"/>
     <use style="fill:#0000ff;stroke:#0000ff;" x="245.094361" xlink:href="#m8424e4787c" y="102.415414"/>
     <use style="fill:#0000ff;stroke:#0000ff;" x="246.535269" xlink:href="#m8424e4787c" y="94.995576"/>
     <use style="fill:#0000ff;stroke:#0000ff;" x="226.521573" xlink:href="#m8424e4787c" y="110.616917"/>
     <use style="fill:#0000ff;stroke:#0000ff;" x="221.020458" xlink:href="#m8424e4787c" y="115.98169"/>
     <use style="fill:#0000ff;stroke:#0000ff;" x="207.081218" xlink:href="#m8424e4787c" y="133.197655"/>
     <use style="fill:#0000ff;stroke:#0000ff;" x="196.448914" xlink:href="#m8424e4787c" y="125.581969"/>
     <use style="fill:#0000ff;stroke:#0000ff;" x="220.927989" xlink:href="#m8424e4787c" y="136.303605"/>
     <use style="fill:#0000ff;stroke:#0000ff;" x="210.454256" xlink:href="#m8424e4787c" y="116.565632"/>
     <use style="fill:#0000ff;stroke:#0000ff;" x="192.455407" xlink:href="#m8424e4787c" y="117.482142"/>
     <use style="fill:#0000ff;stroke:#0000ff;" x="194.855292" xlink:href="#m8424e4787c" y="117.166935"/>
     <use style="fill:#0000ff;stroke:#0000ff;" x="198.64778" xlink:href="#m8424e4787c" y="116.952911"/>
     <use style="fill:#0000ff;stroke:#0000ff;" x="226.035579" xlink:href="#m8424e4787c" y="130.565204"/>
     <use style="fill:#0000ff;stroke:#0000ff;" x="227.919838" xlink:href="#m8424e4787c" y="135.518562"/>
     <use style="fill:#0000ff;stroke:#0000ff;" x="217.28317" xlink:href="#m8424e4787c" y="132.494472"/>
     <use style="fill:#0000ff;stroke:#0000ff;" x="160.262105" xlink:href="#m8424e4787c" y="119.258949"/>
     <use style="fill:#0000ff;stroke:#0000ff;" x="202.273655" xlink:href="#m8424e4787c" y="114.786307"/>
     <use style="fill:#0000ff;stroke:#0000ff;" x="195.401258" xlink:href="#m8424e4787c" y="128.78313"/>
     <use style="fill:#0000ff;stroke:#0000ff;" x="227.902791" xlink:href="#m8424e4787c" y="131.252435"/>
     <use style="fill:#0000ff;stroke:#0000ff;" x="131.243739" xlink:href="#m8424e4787c" y="120.895235"/>
     <use style="fill:#0000ff;stroke:#0000ff;" x="119.777365" xlink:href="#m8424e4787c" y="121.610298"/>
     <use style="fill:#0000ff;stroke:#0000ff;" x="120.311374" xlink:href="#m8424e4787c" y="129.951465"/>
     <use style="fill:#0000ff;stroke:#0000ff;" x="101.140525" xlink:href="#m8424e4787c" y="118.540509"/>
     <use style="fill:#0000ff;stroke:#0000ff;" x="97.212961" xlink:href="#m8424e4787c" y="122.990172"/>
     <use style="fill:#0000ff;stroke:#0000ff;" x="96.503389" xlink:href="#m8424e4787c" y="130.031092"/>
     <use style="fill:#0000ff;stroke:#0000ff;" x="116.851067" xlink:href="#m8424e4787c" y="118.52669"/>
     <use style="fill:#0000ff;stroke:#0000ff;" x="83.906973" xlink:href="#m8424e4787c" y="123.655396"/>
     <use style="fill:#0000ff;stroke:#0000ff;" x="115.098721" xlink:href="#m8424e4787c" y="117.219414"/>
     <use style="fill:#0000ff;stroke:#0000ff;" x="101.221392" xlink:href="#m8424e4787c" y="134.739589"/>
     <use style="fill:#0000ff;stroke:#0000ff;" x="139.724932" xlink:href="#m8424e4787c" y="133.825019"/>
     <use style="fill:#0000ff;stroke:#0000ff;" x="102.75632" xlink:href="#m8424e4787c" y="135.570616"/>
     <use style="fill:#0000ff;stroke:#0000ff;" x="100.15725" xlink:href="#m8424e4787c" y="110.24836"/>
     <use style="fill:#0000ff;stroke:#0000ff;" x="103.220801" xlink:href="#m8424e4787c" y="109.898067"/>
     <use style="fill:#0000ff;stroke:#0000ff;" x="97.702045" xlink:href="#m8424e4787c" y="105.504654"/>
     <use style="fill:#0000ff;stroke:#0000ff;" x="99.222573" xlink:href="#m8424e4787c" y="101.832851"/>
     <use style="fill:#0000ff;stroke:#0000ff;" x="127.314923" xlink:href="#m8424e4787c" y="119.233781"/>
     <use style="fill:#0000ff;stroke:#0000ff;" x="116.644863" xlink:href="#m8424e4787c" y="133.710346"/>
     <use style="fill:#0000ff;stroke:#0000ff;" x="104.49183" xlink:href="#m8424e4787c" y="148.973539"/>
     <use style="fill:#0000ff;stroke:#0000ff;" x="98.058879" xlink:href="#m8424e4787c" y="91.44438"/>
     <use style="fill:#0000ff;stroke:#0000ff;" x="105.303458" xlink:href="#m8424e4787c" y="156.753692"/>
     <use style="fill:#0000ff;stroke:#0000ff;" x="106.270859" xlink:href="#m8424e4787c" y="166.907152"/>
     <use style="fill:#0000ff;stroke:#0000ff;" x="113.054864" xlink:href="#m8424e4787c" y="100.16286"/>
     <use style="fill:#0000ff;stroke:#0000ff;" x="111.375968" xlink:href="#m8424e4787c" y="85.791641"/>
     <use style="fill:#0000ff;stroke:#0000ff;" x="118.705051" xlink:href="#m8424e4787c" y="148.982277"/>
     <use style="fill:#0000ff;stroke:#0000ff;" x="119.997574" xlink:href="#m8424e4787c" y="147.35503"/>
     <use style="fill:#0000ff;stroke:#0000ff;" x="113.585884" xlink:href="#m8424e4787c" y="89.88566"/>
     <use style="fill:#0000ff;stroke:#0000ff;" x="120.764858" xlink:href="#m8424e4787c" y="169.219767"/>
     <use style="fill:#0000ff;stroke:#0000ff;" x="96.950076" xlink:href="#m8424e4787c" y="90.317746"/>
     <use style="fill:#0000ff;stroke:#0000ff;" x="108.087369" xlink:href="#m8424e4787c" y="182.567668"/>
     <use style="fill:#0000ff;stroke:#0000ff;" x="122.422918" xlink:href="#m8424e4787c" y="183.698323"/>
     <use style="fill:#0000ff;stroke:#0000ff;" x="105.301995" xlink:href="#m8424e4787c" y="172.492199"/>
     <use style="fill:#0000ff;stroke:#0000ff;" x="109.098373" xlink:href="#m8424e4787c" y="192.871563"/>
     <use style="fill:#0000ff;stroke:#0000ff;" x="110.082128" xlink:href="#m8424e4787c" y="203.32888"/>
     <use style="fill:#0000ff;stroke:#0000ff;" x="124.74692" xlink:href="#m8424e4787c" y="203.904577"/>
     <use style="fill:#0000ff;stroke:#0000ff;" x="124.397748" xlink:href="#m8424e4787c" y="189.088319"/>
     <use style="fill:#0000ff;stroke:#0000ff;" x="111.438147" xlink:href="#m8424e4787c" y="215.759859"/>
     <use style="fill:#0000ff;stroke:#0000ff;" x="126.106089" xlink:href="#m8424e4787c" y="218.062855"/>
     <use style="fill:#0000ff;stroke:#0000ff;" x="112.574799" xlink:href="#m8424e4787c" y="226.096471"/>
     <use style="fill:#0000ff;stroke:#0000ff;" x="127.01203" xlink:href="#m8424e4787c" y="225.833696"/>
     <use style="fill:#0000ff;stroke:#0000ff;" x="109.034496" xlink:href="#m8424e4787c" y="207.480899"/>
     <use style="fill:#0000ff;stroke:#0000ff;" x="128.445605" xlink:href="#m8424e4787c" y="228.165322"/>
     <use style="fill:#0000ff;stroke:#0000ff;" x="127.534898" xlink:href="#m8424e4787c" y="232.964232"/>
     <use style="fill:#0000ff;stroke:#0000ff;" x="116.991996" xlink:href="#m8424e4787c" y="237.732787"/>
     <use style="fill:#0000ff;stroke:#0000ff;" x="113.444684" xlink:href="#m8424e4787c" y="249.008823"/>
     <use style="fill:#0000ff;stroke:#0000ff;" x="133.061162" xlink:href="#m8424e4787c" y="252.28282"/>
     <use style="fill:#0000ff;stroke:#0000ff;" x="110.822766" xlink:href="#m8424e4787c" y="253.260005"/>
     <use style="fill:#0000ff;stroke:#0000ff;" x="136.322733" xlink:href="#m8424e4787c" y="259.700535"/>
     <use style="fill:#0000ff;stroke:#0000ff;" x="117.361428" xlink:href="#m8424e4787c" y="269.660464"/>
     <use style="fill:#0000ff;stroke:#0000ff;" x="132.873302" xlink:href="#m8424e4787c" y="271.01425"/>
     <use style="fill:#0000ff;stroke:#0000ff;" x="132.039901" xlink:href="#m8424e4787c" y="275.801807"/>
     <use style="fill:#0000ff;stroke:#0000ff;" x="118.910831" xlink:href="#m8424e4787c" y="284.790881"/>
     <use style="fill:#0000ff;stroke:#0000ff;" x="117.168059" xlink:href="#m8424e4787c" y="287.105205"/>
     <use style="fill:#0000ff;stroke:#0000ff;" x="146.47389" xlink:href="#m8424e4787c" y="251.296782"/>
     <use style="fill:#0000ff;stroke:#0000ff;" x="82.078399" xlink:href="#m8424e4787c" y="254.025542"/>
     <use style="fill:#0000ff;stroke:#0000ff;" x="104.334146" xlink:href="#m8424e4787c" y="250.302648"/>
     <use style="fill:#0000ff;stroke:#0000ff;" x="107.740302" xlink:href="#m8424e4787c" y="208.230935"/>
     <use style="fill:#0000ff;stroke:#0000ff;" x="133.632934" xlink:href="#m8424e4787c" y="295.145136"/>
     <use style="fill:#0000ff;stroke:#0000ff;" x="119.884957" xlink:href="#m8424e4787c" y="295.487414"/>
     <use style="fill:#0000ff;stroke:#0000ff;" x="73.833341" xlink:href="#m8424e4787c" y="255.146654"/>
     <use style="fill:#0000ff;stroke:#0000ff;" x="112.209755" xlink:href="#m8424e4787c" y="260.574383"/>
     <use style="fill:#0000ff;stroke:#0000ff;" x="150.418102" xlink:href="#m8424e4787c" y="245.447363"/>
     <use style="fill:#0000ff;stroke:#0000ff;" x="110.324862" xlink:href="#m8424e4787c" y="251.556888"/>
     <use style="fill:#0000ff;stroke:#0000ff;" x="158.082068" xlink:href="#m8424e4787c" y="259.66492"/>
     <use style="fill:#0000ff;stroke:#0000ff;" x="150.282096" xlink:href="#m8424e4787c" y="243.382466"/>
     <use style="fill:#0000ff;stroke:#0000ff;" x="197.964947" xlink:href="#m8424e4787c" y="272.377883"/>
     <use style="fill:#0000ff;stroke:#0000ff;" x="200.066403" xlink:href="#m8424e4787c" y="241.049273"/>
     <use style="fill:#0000ff;stroke:#0000ff;" x="199.748323" xlink:href="#m8424e4787c" y="238.239084"/>
     <use style="fill:#0000ff;stroke:#0000ff;" x="221.953042" xlink:href="#m8424e4787c" y="253.202881"/>
    </g>
   </g>
   <g id="matplotlib.axis_1">
    <g id="xtick_1">
     <g id="line2d_1">
      <defs>
       <path d="M 0 0 
L 0 3.5 
" id="me6f31d7c27" style="stroke:#000000;stroke-width:0.8;"/>
      </defs>
      <g>
       <use style="stroke:#000000;stroke-width:0.8;" x="95.331425" xlink:href="#me6f31d7c27" y="307.584"/>
      </g>
     </g>
     <g id="text_1">
      <!-- $-100$ -->
      <defs>
       <path id="LMMathSymbols10-Regular-0"/>
       <path d="M 38.40625 0 
L 38.40625 2.5 
L 35.40625 2.5 
C 26.796875 2.5 26.59375 3.59375 26.59375 7.15625 
L 26.59375 63.40625 
C 26.59375 65.5 26.5 65.5 25.09375 65.5 
C 21.203125 61.1875 15.296875 59.796875 9.703125 59.796875 
C 9.40625 59.796875 8.90625 59.796875 8.796875 59.5 
C 8.703125 59.296875 8.703125 59.09375 8.703125 57 
C 11.796875 57 17 57.59375 21 59.984375 
L 21 7.203125 
C 21 3.6875 20.796875 2.5 12.203125 2.5 
L 9.203125 2.5 
L 9.203125 0 
L 23.796875 0 
z
" id="LMRoman17-Regular-49"/>
       <path d="M 42 31.640625 
C 42 37.75 41.90625 48.125 37.703125 56.109375 
C 34 63.109375 28.09375 65.59375 22.90625 65.59375 
C 18.09375 65.59375 12 63.40625 8.203125 56.203125 
C 4.203125 48.71875 3.796875 39.4375 3.796875 31.640625 
C 3.796875 25.953125 3.90625 17.28125 7 9.671875 
C 11.296875 -0.609375 19 -2 22.90625 -2 
C 27.5 -2 34.5 -0.109375 38.59375 9.375 
C 41.59375 16.28125 42 24.359375 42 31.640625 
z
M 35.59375 32.75 
C 35.59375 26.25 35.59375 18.265625 34.40625 12.375 
C 32.296875 1.484375 26.40625 -0.40625 22.90625 -0.40625 
C 16.5 -0.40625 12.703125 5.078125 11.296875 12.6875 
C 10.203125 18.5625 10.203125 27.15625 10.203125 32.75 
C 10.203125 40.4375 10.203125 46.828125 11.5 52.921875 
C 13.40625 61.390625 19 64 22.90625 64 
C 27 64 32.296875 61.296875 34.203125 53.125 
C 35.5 47.4375 35.59375 40.734375 35.59375 32.75 
z
" id="LMRoman17-Regular-48"/>
      </defs>
      <g transform="translate(78.166599 325.474648)scale(0.16 -0.16)">
       <use transform="scale(0.996264)" xlink:href="#LMMathSymbols10-Regular-0"/>
       <use transform="translate(77.487468 0)scale(0.996264)" xlink:href="#LMRoman17-Regular-49"/>
       <use transform="translate(123.178416 0)scale(0.996264)" xlink:href="#LMRoman17-Regular-48"/>
       <use transform="translate(168.869364 0)scale(0.996264)" xlink:href="#LMRoman17-Regular-48"/>
      </g>
     </g>
    </g>
    <g id="xtick_2">
     <g id="line2d_2">
      <g>
       <use style="stroke:#000000;stroke-width:0.8;" x="156.261159" xlink:href="#me6f31d7c27" y="307.584"/>
      </g>
     </g>
     <g id="text_2">
      <!-- $-50$ -->
      <defs>
       <path d="M 41.703125 19.75 
C 41.703125 31.71875 33.90625 41 24.203125 41 
C 19.09375 41 14.796875 39.109375 11.40625 35.53125 
L 11.40625 57.6875 
C 12.40625 57.28125 16.5 56 20.703125 56 
C 30 56 35.09375 61.109375 38 64.0625 
C 38 64.953125 38 65.5 37.40625 65.5 
C 37.40625 65.5 37.09375 65.5 36.296875 65.046875 
C 32.796875 63.40625 28.703125 62.078125 23.703125 62.078125 
C 20.703125 62.078125 16.203125 62.484375 11.296875 64.671875 
C 10.203125 65.171875 9.90625 65.171875 9.90625 65.171875 
C 9.40625 65.171875 9.296875 65.0625 9.296875 63.078125 
L 9.296875 34.421875 
C 9.296875 32.640625 9.296875 32.140625 10.296875 32.140625 
C 10.796875 32.140625 11 32.34375 11.5 33.03125 
C 14.703125 37.515625 19.09375 39.40625 24.09375 39.40625 
C 27.59375 39.40625 35.09375 37.21875 35.09375 20.140625 
C 35.09375 16.953125 35.09375 11.171875 32.09375 6.578125 
C 29.59375 2.484375 25.703125 0.390625 21.40625 0.390625 
C 14.796875 0.390625 8.09375 5 6.296875 12.71875 
C 6.703125 12.609375 7.5 12.421875 7.90625 12.421875 
C 9.203125 12.421875 11.703125 13.125 11.703125 16.21875 
C 11.703125 18.90625 9.796875 20 7.90625 20 
C 5.59375 20 4.09375 18.59375 4.09375 15.796875 
C 4.09375 7.09375 11 -2 21.59375 -2 
C 31.90625 -2 41.703125 6.875 41.703125 19.75 
z
" id="LMRoman17-Regular-53"/>
      </defs>
      <g transform="translate(142.751609 325.474648)scale(0.16 -0.16)">
       <use transform="scale(0.996264)" xlink:href="#LMMathSymbols10-Regular-0"/>
       <use transform="translate(77.487468 0)scale(0.996264)" xlink:href="#LMRoman17-Regular-53"/>
       <use transform="translate(123.178416 0)scale(0.996264)" xlink:href="#LMRoman17-Regular-48"/>
      </g>
     </g>
    </g>
    <g id="xtick_3">
     <g id="line2d_3">
      <g>
       <use style="stroke:#000000;stroke-width:0.8;" x="217.190893" xlink:href="#me6f31d7c27" y="307.584"/>
      </g>
     </g>
     <g id="text_3">
      <!-- $0$ -->
      <g transform="translate(213.535617 325.474648)scale(0.16 -0.16)">
       <use transform="scale(0.996264)" xlink:href="#LMRoman17-Regular-48"/>
      </g>
     </g>
    </g>
    <g id="xtick_4">
     <g id="line2d_4">
      <g>
       <use style="stroke:#000000;stroke-width:0.8;" x="278.120627" xlink:href="#me6f31d7c27" y="307.584"/>
      </g>
     </g>
     <g id="text_4">
      <!-- $50$ -->
      <g transform="translate(270.810075 325.474648)scale(0.16 -0.16)">
       <use transform="scale(0.996264)" xlink:href="#LMRoman17-Regular-53"/>
       <use transform="translate(45.690948 0)scale(0.996264)" xlink:href="#LMRoman17-Regular-48"/>
      </g>
     </g>
    </g>
    <g id="xtick_5">
     <g id="line2d_5">
      <g>
       <use style="stroke:#000000;stroke-width:0.8;" x="339.050361" xlink:href="#me6f31d7c27" y="307.584"/>
      </g>
     </g>
     <g id="text_5">
      <!-- $100$ -->
      <g transform="translate(328.084533 325.474648)scale(0.16 -0.16)">
       <use transform="scale(0.996264)" xlink:href="#LMRoman17-Regular-49"/>
       <use transform="translate(45.690948 0)scale(0.996264)" xlink:href="#LMRoman17-Regular-48"/>
       <use transform="translate(91.381897 0)scale(0.996264)" xlink:href="#LMRoman17-Regular-48"/>
      </g>
     </g>
    </g>
    <g id="xtick_6">
     <g id="line2d_6">
      <g>
       <use style="stroke:#000000;stroke-width:0.8;" x="399.980095" xlink:href="#me6f31d7c27" y="307.584"/>
      </g>
     </g>
     <g id="text_6">
      <!-- $150$ -->
      <g transform="translate(389.014267 325.474648)scale(0.16 -0.16)">
       <use transform="scale(0.996264)" xlink:href="#LMRoman17-Regular-49"/>
       <use transform="translate(45.690948 0)scale(0.996264)" xlink:href="#LMRoman17-Regular-53"/>
       <use transform="translate(91.381897 0)scale(0.996264)" xlink:href="#LMRoman17-Regular-48"/>
      </g>
     </g>
    </g>
    <g id="text_7">
     <!-- x [m] -->
     <defs>
      <path d="M 48.296875 -0.09375 
L 48.296875 2.5 
C 43.296875 2.5 41.796875 2.6875 39.40625 5.78125 
L 26 23.09375 
L 35.203125 34.625 
C 38.5 38.40625 42.296875 40 46.703125 40 
L 46.703125 42.59375 
L 39.703125 42.59375 
C 37 42.59375 33.90625 42.59375 31.59375 42.6875 
L 31.59375 40.09375 
C 33 39.890625 33.796875 38.890625 33.796875 37.5 
C 33.796875 35.703125 32.796875 34.609375 32.296875 33.921875 
L 24.90625 24.578125 
L 16.09375 36.03125 
C 15.203125 37.125 15.203125 37.3125 15.203125 37.8125 
C 15.203125 39.015625 16.203125 40 17.90625 40 
L 17.90625 42.6875 
C 15.5 42.59375 11.203125 42.59375 8.703125 42.59375 
C 6 42.59375 2.796875 42.59375 0.59375 42.6875 
L 0.59375 40 
C 6 40 7.203125 39.59375 9.59375 36.609375 
L 21.09375 21.796875 
C 21.296875 21.59375 21.796875 21 21.796875 20.703125 
C 21.796875 20.296875 13.09375 9.671875 12 8.28125 
C 7.5 2.890625 2.796875 2.5 0.09375 2.5 
L 0.09375 0 
L 7.09375 0 
C 9.09375 0 13.5 0 15.296875 -0.09375 
L 15.296875 2.5 
C 14.703125 2.59375 13.09375 2.796875 13.09375 5.078125 
C 13.09375 6.875 13.90625 7.96875 14.796875 9.15625 
L 23.09375 19.3125 
L 31.796875 8 
C 32.59375 6.90625 33.796875 5.40625 33.796875 4.703125 
C 33.796875 3.296875 32.59375 2.5 31 2.5 
L 31 -0.09375 
C 33.40625 0 37.703125 0 40.203125 0 
C 42.90625 0 46.09375 0 48.296875 -0.09375 
z
" id="LMRoman17-Regular-120"/>
      <path d="M 23.5 -25 
L 23.5 -21.515625 
L 14.09375 -21.515625 
L 14.09375 71 
L 23.5 71 
L 23.5 74.484375 
L 10.59375 74.484375 
L 10.59375 -25 
z
" id="LMRoman17-Regular-91"/>
      <path d="M 74.40625 -0.203125 
L 74.40625 2.390625 
C 68 2.390625 67.59375 2.78125 67.59375 6.6875 
L 67.59375 30.203125 
C 67.59375 35.1875 66.703125 43.59375 54.796875 43.59375 
C 48 43.59375 43.296875 39 41.5 33.609375 
L 41.40625 33.609375 
C 40.203125 41.8125 34.296875 43.59375 28.703125 43.59375 
C 20.796875 43.59375 16.703125 37.5 15.203125 33.5 
L 15.09375 33.5 
L 15.09375 43.59375 
L 3.296875 42.5 
L 3.296875 39.90625 
C 9.203125 39.90625 10.09375 39.296875 10.09375 34.5 
L 10.09375 6.6875 
C 10.09375 2.875 9.703125 2.390625 3.296875 2.390625 
L 3.296875 -0.203125 
C 5.703125 0 10.09375 0 12.703125 0 
C 15.296875 0 19.796875 0 22.203125 -0.203125 
L 22.203125 2.390625 
C 15.796875 2.390625 15.40625 2.78125 15.40625 6.6875 
L 15.40625 25.90625 
C 15.40625 35.109375 21 42 28 42 
C 35.40625 42 36.203125 35.40625 36.203125 30.59375 
L 36.203125 6.6875 
C 36.203125 2.875 35.796875 2.390625 29.40625 2.390625 
L 29.40625 -0.203125 
C 31.796875 0 36.203125 0 38.796875 0 
C 41.40625 0 45.90625 0 48.296875 -0.203125 
L 48.296875 2.390625 
C 41.90625 2.390625 41.5 2.78125 41.5 6.6875 
L 41.5 25.90625 
C 41.5 35.109375 47.09375 42 54.09375 42 
C 61.5 42 62.296875 35.40625 62.296875 30.59375 
L 62.296875 6.6875 
C 62.296875 2.875 61.90625 2.390625 55.5 2.390625 
L 55.5 -0.203125 
C 57.90625 0 62.296875 0 64.90625 0 
C 67.5 0 72 0 74.40625 -0.203125 
z
" id="LMRoman17-Regular-109"/>
      <path d="M 14.296875 -25 
L 14.296875 74.484375 
L 1.40625 74.484375 
L 1.40625 71 
L 10.796875 71 
L 10.796875 -21.515625 
L 1.40625 -21.515625 
L 1.40625 -25 
z
" id="LMRoman17-Regular-93"/>
     </defs>
     <g transform="translate(219.757315 344.515459)scale(0.16 -0.16)">
      <use transform="scale(0.996264)" xlink:href="#LMRoman17-Regular-120"/>
      <use transform="translate(78.367362 0)scale(0.996264)" xlink:href="#LMRoman17-Regular-91"/>
      <use transform="translate(103.239378 0)scale(0.996264)" xlink:href="#LMRoman17-Regular-109"/>
      <use transform="translate(180.161537 0)scale(0.996264)" xlink:href="#LMRoman17-Regular-93"/>
     </g>
    </g>
   </g>
   <g id="matplotlib.axis_2">
    <g id="ytick_1">
     <g id="line2d_7">
      <defs>
       <path d="M 0 0 
L -3.5 0 
" id="mc55af12088" style="stroke:#000000;stroke-width:0.8;"/>
      </defs>
      <g>
       <use style="stroke:#000000;stroke-width:0.8;" x="57.6" xlink:href="#mc55af12088" y="295.193656"/>
      </g>
     </g>
     <g id="text_8">
      <!-- $-50$ -->
      <g transform="translate(23.580899 300.63898)scale(0.16 -0.16)">
       <use transform="scale(0.996264)" xlink:href="#LMMathSymbols10-Regular-0"/>
       <use transform="translate(77.487468 0)scale(0.996264)" xlink:href="#LMRoman17-Regular-53"/>
       <use transform="translate(123.178416 0)scale(0.996264)" xlink:href="#LMRoman17-Regular-48"/>
      </g>
     </g>
    </g>
    <g id="ytick_2">
     <g id="line2d_8">
      <g>
       <use style="stroke:#000000;stroke-width:0.8;" x="57.6" xlink:href="#mc55af12088" y="251.905524"/>
      </g>
     </g>
     <g id="text_9">
      <!-- $0$ -->
      <g transform="translate(43.289448 257.350848)scale(0.16 -0.16)">
       <use transform="scale(0.996264)" xlink:href="#LMRoman17-Regular-48"/>
      </g>
     </g>
    </g>
    <g id="ytick_3">
     <g id="line2d_9">
      <g>
       <use style="stroke:#000000;stroke-width:0.8;" x="57.6" xlink:href="#mc55af12088" y="208.617392"/>
      </g>
     </g>
     <g id="text_10">
      <!-- $50$ -->
      <g transform="translate(35.978895 214.062716)scale(0.16 -0.16)">
       <use transform="scale(0.996264)" xlink:href="#LMRoman17-Regular-53"/>
       <use transform="translate(45.690948 0)scale(0.996264)" xlink:href="#LMRoman17-Regular-48"/>
      </g>
     </g>
    </g>
    <g id="ytick_4">
     <g id="line2d_10">
      <g>
       <use style="stroke:#000000;stroke-width:0.8;" x="57.6" xlink:href="#mc55af12088" y="165.32926"/>
      </g>
     </g>
     <g id="text_11">
      <!-- $100$ -->
      <g transform="translate(28.668343 170.774584)scale(0.16 -0.16)">
       <use transform="scale(0.996264)" xlink:href="#LMRoman17-Regular-49"/>
       <use transform="translate(45.690948 0)scale(0.996264)" xlink:href="#LMRoman17-Regular-48"/>
       <use transform="translate(91.381897 0)scale(0.996264)" xlink:href="#LMRoman17-Regular-48"/>
      </g>
     </g>
    </g>
    <g id="ytick_5">
     <g id="line2d_11">
      <g>
       <use style="stroke:#000000;stroke-width:0.8;" x="57.6" xlink:href="#mc55af12088" y="122.041128"/>
      </g>
     </g>
     <g id="text_12">
      <!-- $150$ -->
      <g transform="translate(28.668343 127.486452)scale(0.16 -0.16)">
       <use transform="scale(0.996264)" xlink:href="#LMRoman17-Regular-49"/>
       <use transform="translate(45.690948 0)scale(0.996264)" xlink:href="#LMRoman17-Regular-53"/>
       <use transform="translate(91.381897 0)scale(0.996264)" xlink:href="#LMRoman17-Regular-48"/>
      </g>
     </g>
    </g>
    <g id="ytick_6">
     <g id="line2d_12">
      <g>
       <use style="stroke:#000000;stroke-width:0.8;" x="57.6" xlink:href="#mc55af12088" y="78.752996"/>
      </g>
     </g>
     <g id="text_13">
      <!-- $200$ -->
      <defs>
       <path d="M 41.703125 15.453125 
L 39.90625 15.453125 
C 38.90625 8.375 38.09375 7.171875 37.703125 6.5625 
C 37.203125 5.765625 30 5.765625 28.59375 5.765625 
L 9.40625 5.765625 
L 28.5 24.953125 
C 34.59375 30.734375 41.703125 37.53125 41.703125 47.421875 
C 41.703125 59.21875 32.296875 66 21.796875 66 
C 10.796875 66 4.09375 56.3125 4.09375 47.34375 
C 4.09375 43.4375 7 42.9375 8.203125 42.9375 
C 9.203125 42.9375 12.203125 43.546875 12.203125 47.03125 
C 12.203125 50.109375 9.59375 51 8.203125 51 
C 7.59375 51 7 50.90625 6.59375 50.703125 
C 8.5 59.21875 14.296875 63.40625 20.40625 63.40625 
C 29.09375 63.40625 34.796875 56.515625 34.796875 47.421875 
C 34.796875 38.734375 29.703125 31.25 24 24.75 
L 4.09375 2.28125 
L 4.09375 0 
L 39.296875 0 
z
" id="LMRoman17-Regular-50"/>
      </defs>
      <g transform="translate(28.668343 84.19832)scale(0.16 -0.16)">
       <use transform="scale(0.996264)" xlink:href="#LMRoman17-Regular-50"/>
       <use transform="translate(45.690948 0)scale(0.996264)" xlink:href="#LMRoman17-Regular-48"/>
       <use transform="translate(91.381897 0)scale(0.996264)" xlink:href="#LMRoman17-Regular-48"/>
      </g>
     </g>
    </g>
    <g id="text_14">
     <!-- y [m] -->
     <defs>
      <path d="M 47.40625 40.515625 
L 47.40625 43 
L 41.09375 43 
C 39 43 35.703125 43 33.703125 43.09375 
L 33.703125 40.515625 
C 37.5 40.21875 37.59375 37.421875 37.59375 36.625 
C 37.59375 35.640625 37.40625 35.140625 36.90625 33.921875 
L 26 7.015625 
L 14.09375 36.125 
C 13.59375 37.328125 13.59375 38.125 13.59375 38.125 
C 13.59375 40.3125 15.90625 40.515625 18.296875 40.515625 
L 18.296875 43.09375 
C 15.90625 43 11.59375 43 9.09375 43 
C 6.40625 43 3.203125 43 1 43.09375 
L 1 40.515625 
C 6.40625 40.515625 7 40.015625 8.296875 36.828125 
L 23.203125 0.234375 
C 18.703125 -11.53125 16.09375 -18.40625 9.796875 -18.40625 
C 8.703125 -18.40625 6.203125 -18.109375 4.40625 -16.3125 
C 6.703125 -16.109375 7.703125 -14.71875 7.703125 -13.015625 
C 7.703125 -11.328125 6.5 -9.828125 4.5 -9.828125 
C 2.296875 -9.828125 1.203125 -11.328125 1.203125 -13.125 
C 1.203125 -17.109375 5.296875 -20 9.796875 -20 
C 15.59375 -20 19.203125 -14.40625 21.203125 -9.421875 
L 39 34.4375 
C 41.5 40.515625 46 40.515625 47.40625 40.515625 
z
" id="LMRoman17-Regular-121"/>
     </defs>
     <g transform="translate(15.609221 190.930685)rotate(-90)scale(0.16 -0.16)">
      <use transform="scale(0.996264)" xlink:href="#LMRoman17-Regular-121"/>
      <use transform="translate(78.367362 0)scale(0.996264)" xlink:href="#LMRoman17-Regular-91"/>
      <use transform="translate(103.239378 0)scale(0.996264)" xlink:href="#LMRoman17-Regular-109"/>
      <use transform="translate(180.161537 0)scale(0.996264)" xlink:href="#LMRoman17-Regular-93"/>
     </g>
    </g>
   </g>
   <g id="patch_3">
    <path d="M 57.6 307.584 
L 57.6 41.472 
" style="fill:none;stroke:#000000;stroke-linecap:square;stroke-linejoin:miter;stroke-width:0.8;"/>
   </g>
   <g id="patch_4">
    <path d="M 414.72 307.584 
L 414.72 41.472 
" style="fill:none;stroke:#000000;stroke-linecap:square;stroke-linejoin:miter;stroke-width:0.8;"/>
   </g>
   <g id="patch_5">
    <path d="M 57.6 307.584 
L 414.72 307.584 
" style="fill:none;stroke:#000000;stroke-linecap:square;stroke-linejoin:miter;stroke-width:0.8;"/>
   </g>
   <g id="patch_6">
    <path d="M 57.6 41.472 
L 414.72 41.472 
" style="fill:none;stroke:#000000;stroke-linecap:square;stroke-linejoin:miter;stroke-width:0.8;"/>
   </g>
  </g>
 </g>
 <defs>
  <clipPath id="pb86024f909">
   <rect height="266.112" width="357.12" x="57.6" y="41.472"/>
  </clipPath>
 </defs>
</svg>
